# xmcd CD database file
#
# Track frame offsets:
#	150
#	16402
#	38262
#	48762
#	59100
#	68577
#	85107
#	99112
#	115912
#	140912
#	153107
#	167550
#	179575
#	193662
#	214537
#
# Disc length: 3086 seconds
#
# Revision: 0
# Processed by: cddbd v1.5.1PL0 Copyright (c) Steve Scherf et al.
# Submitted via: CDex 1.50
#
DISCID=bf0c0c0f
DTITLE=宗次郎 - こころのうた・五 慕
DYEAR=1991
DGENRE=New Age
TTITLE0=カチューシャの唄
TTITLE1=ゴンドラの唄
TTITLE2=時計台の鐘
TTITLE3=波浮の港
TTITLE4=母
TTITLE5=北上夜曲
TTITLE6=鈴懸の径
TTITLE7=山の煙
TTITLE8=坊がつる讃歌
TTITLE9=心の窓に灯を
TTITLE10=遠くへ行きたい
TTITLE11=四季の歌
TTITLE12=知床旅情
TTITLE13=青葉城恋唄
TTITLE14=今日の日はさようなら
EXTD=YEAR: 1991
EXTT0=
EXTT1=
EXTT2=
EXTT3=
EXTT4=
EXTT5=
EXTT6=
EXTT7=
EXTT8=
EXTT9=
EXTT10=
EXTT11=
EXTT12=
EXTT13=
EXTT14=
PLAYORDER=
